<svg width="254" height="182" viewBox="0 0 254 182" fill="none" xmlns="http://www.w3.org/2000/svg">
<path d="M218.232 105.413C219.686 108.27 221.994 109.698 225.155 109.698C228.316 109.698 230.592 108.27 231.983 105.413C233.437 102.497 234.164 97.229 234.164 89.6106C234.164 81.9921 233.437 76.7543 231.983 73.8974C230.592 70.981 228.316 69.5227 225.155 69.5227C221.994 69.5227 219.686 70.981 218.232 73.8974C216.841 76.7543 216.146 81.9921 216.146 89.6106C216.146 97.229 216.841 102.497 218.232 105.413ZM203.722 63.9874C208.401 58.7497 215.545 56.1308 225.155 56.1308C234.765 56.1308 241.909 58.7497 246.588 63.9874C251.266 69.2251 253.606 77.7662 253.606 89.6106C253.606 101.455 251.266 109.996 246.588 115.234C241.909 120.471 234.765 123.09 225.155 123.09C215.545 123.09 208.401 120.471 203.722 115.234C199.044 109.996 196.705 101.455 196.705 89.6106C196.705 77.7662 199.044 69.2251 203.722 63.9874Z" fill="#7FD6A7"/>
<path d="M205.3 139.337C205.873 138.809 206.563 138.562 207.371 138.595C208.179 138.628 208.853 138.924 209.391 139.485C211.681 141.861 213.348 143.626 214.391 144.781C214.93 145.375 215.166 146.051 215.099 146.81C215.065 147.569 214.762 148.229 214.189 148.79L212.523 150.374C211.95 150.902 211.277 151.149 210.502 151.116C209.728 151.083 209.071 150.786 208.533 150.225C207.455 149.071 205.721 147.289 203.331 144.88C202.792 144.352 202.539 143.709 202.573 142.95C202.607 142.191 202.91 141.548 203.482 141.02L205.3 139.337ZM247.17 174.972C247.708 175.17 248.129 175.516 248.432 176.011C248.769 176.506 248.921 177.051 248.887 177.645L248.786 179.179C248.752 179.971 248.432 180.631 247.826 181.159C247.22 181.72 246.513 182 245.705 182H236.463C229.594 182 224.274 181.736 220.503 181.208C216.732 180.68 213.87 179.773 211.917 178.486C211.681 178.321 211.445 178.321 211.21 178.486C209.93 179.476 208.701 180.367 207.523 181.159C206.883 181.588 206.176 181.72 205.401 181.555C204.661 181.423 204.088 181.027 203.684 180.367L202.321 178.189C201.916 177.529 201.799 176.836 201.967 176.11C202.169 175.351 202.607 174.758 203.28 174.329C203.482 174.197 203.768 173.999 204.139 173.735C204.543 173.471 204.846 173.273 205.048 173.141C205.284 172.976 205.401 172.761 205.401 172.497V162.648C205.401 162.351 205.25 162.203 204.947 162.203H204.745C203.97 162.203 203.297 161.922 202.725 161.361C202.152 160.8 201.866 160.141 201.866 159.382V157.6C201.866 156.841 202.152 156.181 202.725 155.62C203.297 155.059 203.97 154.779 204.745 154.779H211.361C212.135 154.779 212.809 155.059 213.381 155.62C213.954 156.181 214.24 156.841 214.24 157.6V170.666C214.24 170.93 214.324 171.194 214.492 171.458C215.099 172.316 215.688 172.893 216.26 173.19C216.462 173.322 216.563 173.24 216.563 172.943C216.563 172.349 216.732 171.821 217.068 171.359C217.439 170.864 217.927 170.534 218.533 170.369C219.577 170.072 220.654 169.709 221.765 169.28C221.799 169.214 221.816 169.165 221.816 169.132H218.634C217.859 169.132 217.186 168.851 216.614 168.29C216.041 167.729 215.755 167.07 215.755 166.311V165.766C215.755 165.007 216.041 164.347 216.614 163.787C217.186 163.226 217.859 162.945 218.634 162.945H220.907C221.176 162.945 221.311 162.813 221.311 162.549V161.906C221.311 161.609 221.176 161.46 220.907 161.46H219.644C218.87 161.46 218.196 161.18 217.624 160.619C217.051 160.058 216.765 159.398 216.765 158.639V158.59C216.765 157.831 217.051 157.171 217.624 156.61C218.196 156.049 218.87 155.769 219.644 155.769H220.957C221.193 155.769 221.311 155.653 221.311 155.422C221.311 155.191 221.328 155.026 221.361 154.927C221.429 154.63 221.328 154.482 221.058 154.482C220.89 154.482 220.62 154.482 220.25 154.482C219.913 154.449 219.678 154.432 219.543 154.432C217.758 154.366 216.597 154.102 216.058 153.64C215.519 153.146 215.25 152.123 215.25 150.572V147.206C215.25 146.447 215.536 145.788 216.109 145.227C216.681 144.666 217.354 144.385 218.129 144.385H222.624C222.927 144.385 223.078 144.237 223.078 143.94V143.346C223.078 143.049 222.927 142.9 222.624 142.9H217.624C216.849 142.9 216.176 142.62 215.604 142.059C215.031 141.498 214.745 140.838 214.745 140.079V140.03C214.745 139.271 215.031 138.611 215.604 138.05C216.176 137.489 216.849 137.209 217.624 137.209H227.523C228.297 137.209 228.971 137.489 229.543 138.05C230.116 138.611 230.402 139.271 230.402 140.03V145.524C230.402 146.282 230.116 146.942 229.543 147.503C228.971 148.064 228.297 148.345 227.523 148.345H226.159C226.126 148.345 226.109 148.361 226.109 148.394C226.109 148.427 226.126 148.444 226.159 148.444L228.634 148.988C229.476 149.153 230.132 149.566 230.604 150.225C231.075 150.885 231.193 151.595 230.957 152.354C230.722 153.113 230.284 153.64 229.644 153.937C229.409 154.069 229.341 154.234 229.442 154.432C229.577 154.696 229.644 155.026 229.644 155.422C229.644 155.653 229.762 155.769 229.998 155.769H234.089C234.324 155.769 234.442 155.653 234.442 155.422C234.442 155.158 234.493 154.911 234.594 154.68C234.661 154.416 234.594 154.267 234.392 154.234C233.516 154.036 232.927 153.673 232.624 153.146C232.321 152.618 232.17 151.76 232.17 150.572V147.206C232.17 146.447 232.456 145.788 233.028 145.227C233.6 144.666 234.274 144.385 235.048 144.385H239.594C239.863 144.385 239.998 144.237 239.998 143.94V143.346C239.998 143.049 239.863 142.9 239.594 142.9H234.796C234.021 142.9 233.348 142.62 232.776 142.059C232.203 141.498 231.917 140.838 231.917 140.079V140.03C231.917 139.271 232.203 138.611 232.776 138.05C233.348 137.489 234.021 137.209 234.796 137.209H244.442C245.217 137.209 245.89 137.489 246.463 138.05C247.035 138.611 247.321 139.271 247.321 140.03V145.524C247.321 146.282 247.035 146.942 246.463 147.503C245.89 148.064 245.217 148.345 244.442 148.345H243.079C243.045 148.345 243.028 148.361 243.028 148.394C243.028 148.427 243.045 148.444 243.079 148.444L245.554 148.988C246.395 149.153 247.052 149.566 247.523 150.225C247.995 150.885 248.113 151.595 247.877 152.354C247.607 153.146 247.153 153.673 246.513 153.937C245.873 154.201 244.712 154.366 243.028 154.432C242.759 154.432 242.658 154.581 242.725 154.878C242.759 155.01 242.776 155.191 242.776 155.422C242.776 155.653 242.894 155.769 243.129 155.769H244.442C245.217 155.769 245.89 156.049 246.463 156.61C247.035 157.171 247.321 157.831 247.321 158.59V158.639C247.321 159.398 247.035 160.058 246.463 160.619C245.89 161.18 245.217 161.46 244.442 161.46H243.23C242.927 161.46 242.776 161.609 242.776 161.906V162.549C242.776 162.813 242.927 162.945 243.23 162.945H245.453C246.227 162.945 246.9 163.226 247.473 163.787C248.045 164.347 248.331 165.007 248.331 165.766V166.311C248.331 167.07 248.045 167.729 247.473 168.29C246.9 168.851 246.227 169.132 245.453 169.132H243.685C243.618 169.132 243.584 169.148 243.584 169.181C243.584 169.214 243.601 169.247 243.634 169.28C243.803 169.346 244.123 169.478 244.594 169.676C245.099 169.874 245.469 170.023 245.705 170.122C246.446 170.452 246.951 170.996 247.22 171.755C247.523 172.481 247.506 173.207 247.17 173.933L246.917 174.477C246.816 174.675 246.9 174.84 247.17 174.972ZM238.23 148.79V149.087C238.23 149.384 238.281 149.582 238.382 149.681C238.483 149.78 238.685 149.829 238.988 149.829H239.745H240.503C240.907 149.829 241.16 149.78 241.261 149.681C241.362 149.582 241.429 149.269 241.463 148.741C241.463 148.477 241.328 148.345 241.059 148.345H238.685C238.382 148.345 238.23 148.493 238.23 148.79ZM229.644 161.906V162.549C229.644 162.813 229.796 162.945 230.099 162.945H234.038C234.308 162.945 234.442 162.813 234.442 162.549V161.906C234.442 161.609 234.308 161.46 234.038 161.46H230.099C229.796 161.46 229.644 161.609 229.644 161.906ZM221.311 149.087C221.311 149.384 221.361 149.582 221.462 149.681C221.563 149.78 221.765 149.829 222.068 149.829H222.826H223.584C224.021 149.829 224.274 149.78 224.341 149.681C224.442 149.582 224.509 149.269 224.543 148.741C224.543 148.477 224.408 148.345 224.139 148.345H221.765C221.462 148.345 221.311 148.493 221.311 148.79V149.087ZM235.957 174.824H239.493C239.527 174.791 239.527 174.741 239.493 174.675C238.415 174.246 237.304 173.801 236.159 173.339C235.419 173.075 234.88 172.596 234.543 171.903C234.24 171.178 234.223 170.452 234.493 169.726L234.543 169.528C234.611 169.264 234.526 169.132 234.291 169.132H229.947C229.846 169.132 229.762 169.181 229.695 169.28C229.661 169.346 229.661 169.412 229.695 169.478C230.031 170.204 230.082 170.947 229.846 171.705C229.644 172.431 229.19 172.976 228.483 173.339C227.843 173.702 227.052 174.098 226.109 174.527C226.075 174.56 226.058 174.609 226.058 174.675C226.058 174.708 226.092 174.725 226.159 174.725C227.876 174.791 231.143 174.824 235.957 174.824Z" fill="white"/>
<path d="M177.53 107.913C178.984 107.913 180.249 108.419 181.324 109.431C182.398 110.442 182.936 111.633 182.936 113.002V117.109C182.936 118.478 182.398 119.668 181.324 120.68C180.249 121.692 178.984 122.197 177.53 122.197H139.027C137.573 122.197 136.309 121.692 135.234 120.68C134.159 119.668 133.622 118.478 133.622 117.109V113.002C133.622 109.669 135.044 106.961 137.889 104.877C148.321 97.3779 155.118 91.8425 158.279 88.2714C161.44 84.6407 163.02 81.0695 163.02 77.5579C163.02 73.0939 160.333 70.8619 154.959 70.8619C151.166 70.8619 146.235 71.8737 140.165 73.8974C138.901 74.314 137.731 74.195 136.656 73.5403C135.582 72.8261 135.044 71.8737 135.044 70.6834V64.7909C135.044 63.2434 135.518 61.8745 136.467 60.6841C137.415 59.4342 138.648 58.6307 140.165 58.2735C146.361 56.8451 152.241 56.1308 157.804 56.1308C165.707 56.1308 171.777 57.8867 176.013 61.3983C180.312 64.8504 182.462 69.6418 182.462 75.7723C182.462 80.6529 180.818 85.2954 177.53 89.6998C174.306 94.1043 167.92 100.086 158.374 107.645C158.31 107.704 158.279 107.764 158.279 107.824C158.279 107.883 158.31 107.913 158.374 107.913H177.53Z" fill="#7FD6A7"/>
<path d="M177.787 146.638C178.556 146.638 179.225 146.919 179.794 147.481C180.363 148.044 180.647 148.705 180.647 149.466V151.749C180.647 152.51 180.363 153.172 179.794 153.734C179.225 154.297 178.556 154.578 177.787 154.578H164.389C164.088 154.578 163.971 154.71 164.038 154.975C164.874 159.143 166.53 162.799 169.005 165.942C171.481 169.085 174.86 171.881 179.142 174.329C179.811 174.693 180.229 175.239 180.396 175.967C180.564 176.694 180.43 177.356 179.995 177.952L178.038 180.582C177.536 181.243 176.884 181.674 176.081 181.872C175.311 182.071 174.575 181.971 173.873 181.574C170.862 179.821 168.086 177.555 165.543 174.776C163.001 171.963 160.876 168.853 159.17 165.446C159.036 165.247 158.903 165.247 158.769 165.446C156.962 168.887 154.721 172.013 152.045 174.825C149.368 177.604 146.441 179.87 143.263 181.624C142.527 182.021 141.775 182.104 141.005 181.872C140.236 181.674 139.6 181.243 139.098 180.582L137.141 177.952C136.706 177.356 136.573 176.694 136.74 175.967C136.907 175.239 137.309 174.693 137.944 174.329C142.226 171.881 145.605 169.085 148.081 165.942C150.59 162.799 152.262 159.143 153.099 154.975C153.165 154.71 153.048 154.578 152.747 154.578H139.349C138.58 154.578 137.911 154.297 137.342 153.734C136.773 153.172 136.489 152.51 136.489 151.749V149.466C136.489 148.705 136.773 148.044 137.342 147.481C137.911 146.919 138.58 146.638 139.349 146.638H153.349C153.65 146.638 153.801 146.489 153.801 146.191V140.037C153.801 139.276 154.085 138.615 154.654 138.052C155.223 137.49 155.892 137.209 156.661 137.209H160.475C161.244 137.209 161.913 137.49 162.482 138.052C163.051 138.615 163.335 139.276 163.335 140.037V146.191C163.335 146.489 163.486 146.638 163.787 146.638H177.787Z" fill="white"/>
<path d="M71.2165 12.5591C70.4814 12.5591 69.8423 12.2906 69.299 11.7534C68.7557 11.2163 68.4841 10.5844 68.4841 9.85771V3.17532C68.4841 2.44863 68.7557 1.81673 69.299 1.27961C69.8423 0.742488 70.4814 0.473928 71.2165 0.473928H78.9342C79.6693 0.473928 80.3084 0.742488 80.8517 1.27961C81.395 1.81673 81.6666 2.44863 81.6666 3.17532V9.85771C81.6666 10.5844 81.395 11.2163 80.8517 11.7534C80.3084 12.2906 79.6693 12.5591 78.9342 12.5591H73.9968H71.2165ZM73.9968 6.35064V7.44068C73.9968 7.69344 74.1406 7.81982 74.4282 7.81982H76.2019C76.4895 7.81982 76.6333 7.69344 76.6333 7.44068V6.35064C76.6333 6.06629 76.4895 5.92411 76.2019 5.92411H74.4282C74.1406 5.92411 73.9968 6.06629 73.9968 6.35064ZM85.3577 0.473928H93.0755C93.8106 0.473928 94.4497 0.742488 94.993 1.27961C95.5363 1.81673 95.8079 2.44863 95.8079 3.17532V9.85771C95.8079 10.5844 95.5363 11.2163 94.993 11.7534C94.4497 12.2906 93.8106 12.5591 93.0755 12.5591H87.6587H85.3577C84.6227 12.5591 83.9836 12.2906 83.4403 11.7534C82.897 11.2163 82.6254 10.5844 82.6254 9.85771V3.17532C82.6254 2.44863 82.897 1.81673 83.4403 1.27961C83.9836 0.742488 84.6227 0.473928 85.3577 0.473928ZM90.2952 7.44068V6.35064C90.2952 6.06629 90.1514 5.92411 89.8638 5.92411H88.0901C87.8025 5.92411 87.6587 6.06629 87.6587 6.35064V7.44068C87.6587 7.69344 87.8025 7.81982 88.0901 7.81982H89.8638C90.1514 7.81982 90.2952 7.69344 90.2952 7.44068ZM112.202 29.6205C113.8 30.5684 114.503 31.9428 114.311 33.7437C113.96 37.1244 113.257 39.652 112.202 41.3266C111.148 43.0011 109.917 43.8384 108.511 43.8384C105.475 43.8384 103.142 42.2112 101.512 38.9569C101.385 38.7042 101.209 38.6568 100.985 38.8148C99.1954 40.2049 97.1502 41.5003 94.8492 42.701C94.1461 43.0485 93.4271 43.1117 92.692 42.8905C91.989 42.701 91.4137 42.2744 90.9663 41.6109L90.487 40.8526C90.3272 40.6315 90.1195 40.5209 89.8638 40.5209H87.3231C87.0675 40.5209 86.9397 40.6631 86.9397 40.9474V41.374C86.9397 42.1007 86.668 42.7326 86.1247 43.2697C85.5814 43.8068 84.9423 44.0754 84.2073 44.0754H81.2831C80.5481 44.0754 79.909 43.8068 79.3657 43.2697C78.8224 42.7326 78.5508 42.1007 78.5508 41.374V40.9474C78.5508 40.6631 78.4069 40.5209 78.1193 40.5209H70.9768C70.2417 40.5209 69.6026 40.2523 69.0593 39.7152C68.516 39.1781 68.2444 38.5462 68.2444 37.8195V36.3503C68.2444 35.6236 68.516 34.9917 69.0593 34.4546C69.6026 33.9175 70.2417 33.6489 70.9768 33.6489H78.1193C78.4069 33.6489 78.5508 33.5226 78.5508 33.2698V32.8906C78.5508 32.6063 78.4069 32.4641 78.1193 32.4641H76.3936H72.6546C71.9195 32.4641 71.2804 32.1956 70.7371 31.6584C70.1938 31.1213 69.9222 30.4894 69.9222 29.7627V16.4453C69.9222 15.7186 70.1938 15.0867 70.7371 14.5496C71.2804 14.0125 71.9195 13.7439 72.6546 13.7439H92.5962C92.9797 13.7439 93.3631 13.8229 93.7466 13.9809C93.9384 14.0441 94.0503 13.9809 94.0822 13.7913C94.1781 13.2226 94.4497 12.7329 94.8971 12.3221C95.3445 11.9114 95.8718 11.6902 96.479 11.6586C96.7347 11.6586 96.8625 11.5165 96.8625 11.2321C96.7027 8.57811 96.6069 5.71874 96.5749 2.654C96.5429 1.92731 96.7986 1.3112 97.3419 0.80568C97.8852 0.26856 98.5243 0 99.2593 0H101.704C102.471 0 103.11 0.26856 103.622 0.80568C104.165 1.3112 104.452 1.94311 104.484 2.70139C104.484 3.36489 104.58 6.01889 104.772 10.6634C104.772 10.9162 104.916 11.0425 105.203 11.0425L110.812 10.616C111.547 10.5528 112.202 10.774 112.777 11.2795C113.385 11.785 113.704 12.4011 113.736 13.1278L113.832 15.0709C113.896 15.7976 113.672 16.4611 113.161 17.0614C112.65 17.6301 112.026 17.9303 111.291 17.9619L105.635 18.3884C105.379 18.3884 105.251 18.5148 105.251 18.7676C105.283 19.1151 105.315 19.668 105.347 20.4263C105.411 21.1846 105.459 21.7533 105.491 22.1325C105.491 22.1957 105.523 22.2273 105.587 22.2273C105.651 22.2273 105.699 22.2115 105.731 22.1799C105.859 21.9587 106.018 21.6269 106.21 21.1846C106.562 20.4895 107.073 19.9998 107.744 19.7154C108.447 19.4311 109.15 19.4153 109.853 19.668L111.243 20.142C111.947 20.3947 112.442 20.8687 112.73 21.5638C113.049 22.2273 113.049 22.8908 112.73 23.5543C111.963 25.2604 111.18 26.777 110.381 28.104C110.253 28.3567 110.301 28.5305 110.524 28.6253L112.202 29.6205ZM79.0301 26.5874V25.7343C79.0301 25.4816 78.8863 25.3552 78.5987 25.3552H76.7771C76.5214 25.3552 76.3936 25.4816 76.3936 25.7343V26.5874C76.3936 26.8718 76.5214 27.0139 76.7771 27.0139H78.5987C78.8863 27.0139 79.0301 26.8718 79.0301 26.5874ZM79.0301 20.4263V19.6206C79.0301 19.3363 78.8863 19.1941 78.5987 19.1941H76.7771C76.5214 19.1941 76.3936 19.3363 76.3936 19.6206V20.4263C76.3936 20.7107 76.5214 20.8529 76.7771 20.8529H78.5987C78.8863 20.8529 79.0301 20.7107 79.0301 20.4263ZM86.4603 19.6206V20.4263C86.4603 20.7107 86.6041 20.8529 86.8917 20.8529H88.6654C88.953 20.8529 89.0968 20.7107 89.0968 20.4263V19.6206C89.0968 19.3363 88.953 19.1941 88.6654 19.1941H86.8917C86.6041 19.1941 86.4603 19.3363 86.4603 19.6206ZM86.8917 27.0139H88.6654C88.953 27.0139 89.0968 26.8718 89.0968 26.5874V25.7343C89.0968 25.4816 88.953 25.3552 88.6654 25.3552H86.8917C86.6041 25.3552 86.4603 25.4816 86.4603 25.7343V26.5874C86.4603 26.8718 86.6041 27.0139 86.8917 27.0139ZM98.6841 31.3267C98.8759 31.2003 98.9398 30.9949 98.8759 30.7106C98.2687 27.709 97.7733 23.9176 97.3898 19.3363C97.3898 19.1151 97.246 19.0045 96.9584 19.0045C96.5429 19.0361 96.1275 18.9571 95.7121 18.7676C95.6481 18.7044 95.5682 18.7044 95.4724 18.7676C95.3765 18.8308 95.3286 18.9097 95.3286 19.0045V29.7627C95.3286 30.4894 95.0569 31.1213 94.5136 31.6584C93.9704 32.1956 93.3312 32.4641 92.5962 32.4641H89.0968H87.3231C87.0675 32.4641 86.9397 32.5905 86.9397 32.8433V33.2698C86.9397 33.5226 87.0675 33.6489 87.3231 33.6489H93.5549C93.9703 33.6489 94.3698 33.7437 94.7533 33.9333C95.0409 34.0597 95.2806 34.0439 95.4724 33.8859C96.5589 33.1276 97.6295 32.2745 98.6841 31.3267ZM108.271 35.0707C108.559 35.0707 108.879 33.4594 109.23 30.2366C109.23 30.1735 109.198 30.1419 109.134 30.1419C109.102 30.1419 109.07 30.1577 109.038 30.1893C108.687 30.7264 108.128 31.5005 107.361 32.5115C107.169 32.7643 107.121 33.0012 107.217 33.2224C107.6 34.4546 107.952 35.0707 108.271 35.0707ZM108.319 1.04264C109.054 0.821476 109.773 0.868869 110.477 1.18482C111.18 1.50077 111.675 2.0221 111.963 2.74879L113.113 5.73453C113.369 6.42963 113.337 7.10893 113.017 7.77243C112.698 8.40433 112.17 8.84667 111.435 9.09943L110.62 9.38379C109.917 9.60495 109.214 9.55756 108.511 9.24161C107.84 8.92566 107.377 8.40433 107.121 7.67764C106.993 7.3301 106.801 6.82457 106.546 6.16107C106.29 5.49757 106.098 4.99205 105.97 4.6445C105.715 3.94941 105.731 3.28591 106.018 2.654C106.306 1.9905 106.801 1.54817 107.504 1.327L108.319 1.04264Z" fill="white"/>
<path d="M84.6105 105.413C86.0647 108.27 88.3723 109.698 91.5335 109.698C94.6946 109.698 96.9707 108.27 98.3616 105.413C99.8157 102.497 100.543 97.229 100.543 89.6106C100.543 81.9921 99.8157 76.7543 98.3616 73.8974C96.9707 70.981 94.6946 69.5227 91.5335 69.5227C88.3723 69.5227 86.0647 70.981 84.6105 73.8974C83.2196 76.7543 82.5242 81.9921 82.5242 89.6106C82.5242 97.229 83.2196 102.497 84.6105 105.413ZM70.1008 63.9874C74.7793 58.7497 81.9235 56.1308 91.5335 56.1308C101.143 56.1308 108.288 58.7497 112.966 63.9874C117.645 69.2251 119.984 77.7662 119.984 89.6106C119.984 101.455 117.645 109.996 112.966 115.234C108.288 120.471 101.143 123.09 91.5335 123.09C81.9235 123.09 74.7793 120.471 70.1008 115.234C65.4223 109.996 63.083 101.455 63.083 89.6106C63.083 77.7662 65.4223 69.2251 70.1008 63.9874Z" fill="#7FD6A7"/>
<path d="M94.9471 160.723C95.7099 160.723 96.3732 161.007 96.937 161.574C97.5008 162.108 97.7661 162.759 97.7329 163.527C97.6002 167.999 97.053 171.554 96.0913 174.19C95.1295 176.827 93.604 179.096 91.5146 180.999C90.9177 181.533 90.2212 181.766 89.4253 181.7C88.6294 181.633 87.9495 181.299 87.3857 180.698L85.2964 178.546C84.7989 178.012 84.5667 177.378 84.5999 176.643C84.6662 175.876 84.9813 175.242 85.5451 174.741C86.8385 173.539 87.7505 172.121 88.2811 170.486C88.8449 168.85 89.1766 166.531 89.2761 163.527C89.3092 162.759 89.6077 162.108 90.1715 161.574C90.7353 161.007 91.3986 160.723 92.1613 160.723H94.9471ZM113.154 167.532C113.95 167.665 114.597 168.049 115.094 168.683C115.625 169.317 115.874 170.035 115.841 170.836C115.774 172.338 115.708 173.556 115.642 174.491C115.608 175.425 115.492 176.326 115.293 177.194C115.127 178.095 114.978 178.763 114.846 179.196C114.746 179.664 114.464 180.098 114 180.498C113.569 180.932 113.187 181.216 112.856 181.349C112.557 181.516 112.01 181.65 111.214 181.75C110.418 181.883 109.705 181.95 109.075 181.95C108.445 181.983 107.5 182 106.24 182C103.155 182 101.265 181.75 100.568 181.249C99.872 180.782 99.5238 179.53 99.5238 177.494V163.577C99.5238 162.809 99.8057 162.142 100.369 161.574C100.933 161.007 101.597 160.723 102.359 160.723H105.145C105.908 160.723 106.571 161.007 107.135 161.574C107.699 162.142 107.981 162.809 107.981 163.577V173.239C107.981 174.007 107.997 174.457 108.03 174.591C108.064 174.691 108.213 174.741 108.478 174.741C108.677 174.741 108.81 174.724 108.876 174.691C108.976 174.657 109.058 174.474 109.125 174.14C109.224 173.773 109.291 173.289 109.324 172.688C109.357 172.088 109.39 171.136 109.423 169.835C109.456 169.067 109.755 168.45 110.319 167.982C110.882 167.482 111.529 167.298 112.259 167.432L113.154 167.532ZM84.4507 162.826C84.2517 162.626 84.0195 162.526 83.7542 162.526L81.9136 162.676C81.6483 162.676 81.5156 162.826 81.5156 163.126V179.146C81.5156 179.914 81.2337 180.582 80.67 181.149C80.1062 181.716 79.4429 182 78.6801 182H76.5908C75.828 182 75.1647 181.716 74.6009 181.149C74.0371 180.582 73.7552 179.914 73.7552 179.146V163.727C73.7552 163.46 73.6226 163.327 73.3573 163.327L71.0192 163.527C70.2564 163.594 69.5766 163.36 68.9796 162.826C68.4158 162.292 68.1173 161.641 68.0842 160.873L68.0344 159.321C68.0013 158.52 68.25 157.836 68.7806 157.269C69.3444 156.702 70.0077 156.384 70.7705 156.318L71.8649 156.218C72.1302 156.218 72.296 156.067 72.3623 155.767C72.3955 155.533 72.495 155.316 72.6608 155.116C72.6608 155.083 72.6774 155.049 72.7106 155.016C72.7437 154.983 72.7769 154.949 72.8101 154.916C72.9427 154.716 72.9261 154.499 72.7603 154.265C72.3292 153.731 71.2513 152.429 69.5268 150.36C68.2997 148.892 68.0013 147.29 68.6314 145.554L69.7258 142.45C69.8585 142.016 70.1569 141.749 70.6212 141.649C71.0855 141.549 71.4669 141.683 71.7654 142.05C71.9312 142.217 72.0473 142.217 72.1136 142.05C72.5116 141.149 73.0422 139.764 73.7055 137.895C73.9708 137.127 74.4517 136.56 75.1481 136.192C75.8777 135.792 76.6239 135.708 77.3867 135.942L78.1329 136.192C78.8625 136.393 79.3931 136.843 79.7248 137.544C80.0564 138.212 80.073 138.896 79.7745 139.597C78.7464 142.167 77.6023 144.67 76.342 147.106C76.2425 147.373 76.2591 147.607 76.3918 147.807C76.4249 147.84 76.4581 147.874 76.4913 147.907C76.5244 147.94 76.541 147.974 76.541 148.007C76.6074 148.074 76.6903 148.107 76.7898 148.107C76.8893 148.107 76.9556 148.074 76.9887 148.007C77.6189 146.906 78.564 145.22 79.8243 142.951C80.1891 142.25 80.7529 141.766 81.5156 141.499C82.2784 141.199 83.0246 141.182 83.7542 141.449L84.4507 141.699C85.1471 141.966 85.628 142.45 85.8933 143.151C86.1586 143.852 86.1089 144.536 85.7441 145.204C83.6547 148.975 81.6317 152.396 79.675 155.467C79.5424 155.667 79.6087 155.767 79.874 155.767L81.9136 155.617C82.2121 155.617 82.3282 155.483 82.2618 155.216L81.9634 154.015C81.7975 153.381 81.8639 152.78 82.1623 152.213C82.494 151.612 82.9749 151.228 83.605 151.061C84.2351 150.894 84.8321 150.978 85.3958 151.311C85.9596 151.612 86.3079 152.079 86.4405 152.713C86.9711 154.849 87.2862 156.134 87.3857 156.568C87.4189 156.568 87.452 156.551 87.4852 156.518L87.4354 154.766C87.4023 154.098 87.6013 153.548 88.0324 153.114C88.4635 152.646 88.9942 152.396 89.6243 152.363C89.8564 152.363 90.0057 152.246 90.072 152.012C91.2659 148.842 91.9458 147.023 92.1116 146.555C92.1779 146.322 92.0784 146.205 91.8131 146.205H89.1766C88.4138 146.205 87.7505 145.921 87.1867 145.354C86.6229 144.787 86.341 144.119 86.341 143.351V141.549C86.341 140.781 86.6229 140.114 87.1867 139.547C87.7505 138.979 88.4138 138.696 89.1766 138.696H94.8476C95.1461 138.696 95.2953 138.545 95.2953 138.245V137.794C95.2953 137.027 95.5772 136.359 96.141 135.792C96.7048 135.225 97.3681 134.941 98.1309 134.941H101.912C102.674 134.941 103.338 135.225 103.901 135.792C104.465 136.359 104.747 137.027 104.747 137.794V138.245C104.747 138.545 104.896 138.696 105.195 138.696H112.11C112.872 138.696 113.536 138.979 114.099 139.547C114.663 140.114 114.945 140.781 114.945 141.549V143.351C114.945 144.119 114.663 144.787 114.099 145.354C113.536 145.921 112.872 146.205 112.11 146.205H101.663C101.431 146.205 101.281 146.355 101.215 146.656C101.215 146.756 101.182 146.906 101.116 147.106L99.6233 151.311C99.5569 151.545 99.6398 151.662 99.872 151.662C101.663 151.528 103.006 151.412 103.901 151.311C104.001 151.311 104.067 151.278 104.1 151.211C104.167 151.111 104.167 151.028 104.1 150.961C103.802 150.36 103.769 149.743 104.001 149.109C104.233 148.441 104.664 147.991 105.294 147.757L107.632 146.806C108.362 146.505 109.092 146.489 109.821 146.756C110.584 146.989 111.148 147.473 111.513 148.207C112.74 150.644 113.884 153.197 114.945 155.867C115.244 156.601 115.227 157.336 114.895 158.07C114.597 158.771 114.083 159.288 113.353 159.622L111.314 160.573C110.617 160.907 109.904 160.923 109.175 160.623C108.478 160.323 107.997 159.805 107.732 159.071C107.699 159.038 107.666 158.988 107.632 158.921C107.599 158.821 107.583 158.754 107.583 158.721C107.45 158.387 107.251 158.253 106.986 158.32C100.85 159.121 95.3285 159.639 90.4202 159.872C89.4585 159.906 88.6625 159.505 88.0324 158.671C87.9992 158.637 87.9661 158.654 87.9329 158.721C87.9329 158.754 87.9329 158.787 87.9329 158.821C87.9661 159.054 88.0324 159.372 88.1319 159.772C88.2314 160.173 88.2977 160.49 88.3309 160.723C88.4635 161.357 88.364 161.941 88.0324 162.475C87.7008 163.009 87.2199 163.343 86.5898 163.477C85.7938 163.677 85.0808 163.46 84.4507 162.826ZM69.2781 165.93C69.7424 165.529 70.2896 165.346 70.9197 165.379C71.5498 165.412 72.0639 165.663 72.4618 166.13C72.8598 166.564 73.0422 167.098 73.009 167.732C72.8101 170.736 72.5282 173.99 72.1634 177.494C72.097 178.128 71.8151 178.629 71.3177 178.996C70.8534 179.363 70.3062 179.497 69.6761 179.397C69.0459 179.297 68.5319 178.98 68.1339 178.446C67.7691 177.945 67.6199 177.378 67.6862 176.743C67.9184 174.707 68.2002 171.62 68.5319 167.482C68.5651 166.848 68.8138 166.33 69.2781 165.93ZM86.938 171.987C87.0043 172.622 86.8219 173.172 86.3908 173.639C85.9928 174.107 85.4788 174.357 84.8486 174.39C84.2185 174.424 83.6713 174.24 83.207 173.84C82.7759 173.406 82.5437 172.872 82.5106 172.238C82.4774 171.17 82.3945 169.534 82.2618 167.332C82.2287 166.731 82.3945 166.213 82.7593 165.78C83.1241 165.312 83.605 165.045 84.2019 164.979C84.7989 164.912 85.3129 165.062 85.7441 165.429C86.2084 165.796 86.4737 166.28 86.54 166.881C86.739 169.151 86.8717 170.853 86.938 171.987Z" fill="white"/>
<path d="M4.71649 7.53547C4.1093 7.09313 3.75775 6.50862 3.66188 5.78193C3.56601 5.05524 3.75775 4.40754 4.23712 3.83882L5.57935 2.32225C6.09067 1.72194 6.71385 1.37439 7.44888 1.27961C8.18391 1.15323 8.87099 1.3112 9.51014 1.75354C10.6287 2.54342 11.907 3.50707 13.3451 4.6445C13.9523 5.11843 14.2878 5.73454 14.3517 6.49282C14.4476 7.21951 14.2559 7.88301 13.7765 8.48332L12.3384 10.2369C11.891 10.8056 11.2998 11.1215 10.5648 11.1847C9.82973 11.2479 9.17459 11.0425 8.59935 10.5686C6.80972 9.11523 5.51544 8.10418 4.71649 7.53547ZM7.68856 21.8955C6.72983 21.074 5.084 19.7628 2.75109 17.9619C2.17585 17.5196 1.8403 16.9351 1.74443 16.2084C1.64855 15.4817 1.8403 14.834 2.31966 14.2653L3.66188 12.7487C4.14125 12.1484 4.74845 11.8008 5.48348 11.706C6.25046 11.6113 6.95354 11.785 7.59269 12.2274C9.22253 13.3964 10.8364 14.6444 12.4343 15.9714C13.0095 16.4769 13.3291 17.1088 13.393 17.8671C13.4889 18.5938 13.2971 19.2573 12.8178 19.8576L11.3797 21.6111C10.9323 22.1799 10.341 22.4958 9.60602 22.559C8.87099 22.5906 8.23184 22.3694 7.68856 21.8955ZM12.674 26.0661C13.409 26.3188 13.9523 26.7928 14.3038 27.4879C14.6873 28.183 14.7672 28.8938 14.5435 29.6205C13.3291 33.7911 11.7472 37.7563 9.79776 41.5161C9.47818 42.1796 8.95089 42.5904 8.21586 42.7484C7.48083 42.9063 6.80972 42.7958 6.20252 42.4166L3.85363 40.9948C3.21447 40.5841 2.79903 40.0154 2.60728 39.2887C2.41554 38.562 2.49543 37.8669 2.84696 37.2034C4.41289 34.1387 5.85098 30.7264 7.16125 26.9665C7.41691 26.2714 7.86433 25.7659 8.50348 25.45C9.17459 25.134 9.86169 25.1024 10.5648 25.3552L12.674 26.0661ZM45.2229 20.3789C45.7662 20.3789 46.2136 20.5685 46.5651 20.9476C46.9167 21.2952 47.0924 21.7217 47.0924 22.2273V24.7865C47.0924 25.5132 46.8208 26.1451 46.2775 26.6822C45.7342 27.2193 45.0951 27.4879 44.36 27.4879H36.1629C36.067 27.4879 35.9871 27.5353 35.9232 27.63C35.8912 27.6932 35.8912 27.7564 35.9232 27.8196C37.553 30.6 40.7169 33.2382 45.4146 35.7342C46.0538 36.0818 46.4852 36.6189 46.7089 37.3456C46.9326 38.0407 46.8687 38.7042 46.5172 39.3361L45.0311 41.9427C44.6796 42.6062 44.1204 43.0485 43.3534 43.2697C42.6183 43.4909 41.9312 43.4119 41.2921 43.0327C37.1056 40.5683 33.5903 37.2192 30.746 32.9854C30.7141 32.9222 30.6502 32.8906 30.5543 32.8906C30.4584 32.8906 30.3785 32.9222 30.3146 32.9854C27.5663 37.3772 23.987 40.7579 19.5768 43.1275C18.9057 43.475 18.2026 43.5382 17.4676 43.3171C16.7326 43.0959 16.1733 42.6536 15.7898 41.9901L14.16 39.2887C13.8085 38.6568 13.7445 38.0091 13.9683 37.3456C14.2239 36.6821 14.6713 36.1766 15.3105 35.829C19.9124 33.5857 22.9004 30.9317 24.2746 27.867C24.4024 27.6142 24.3225 27.4879 24.0349 27.4879H16.9883C16.2532 27.4879 15.6141 27.2193 15.0708 26.6822C14.5275 26.1451 14.2559 25.5132 14.2559 24.7865V23.0803C14.2559 22.3536 14.5275 21.7217 15.0708 21.1846C15.6141 20.6475 16.2532 20.3789 16.9883 20.3789H25.0895C25.3772 20.3789 25.521 20.2368 25.521 19.9524V13.4122C25.521 13.1594 25.3772 13.033 25.0895 13.033H18.9057C18.1707 13.033 17.5315 12.7645 16.9883 12.2274C16.445 11.6902 16.1733 11.0583 16.1733 10.3316V8.38854C16.1733 7.66185 16.445 7.02994 16.9883 6.49282C17.5315 5.9557 18.1707 5.68714 18.9057 5.68714H25.0895C25.3772 5.68714 25.521 5.54496 25.521 5.26061V2.7014C25.521 1.9747 25.7926 1.3428 26.3359 0.80568C26.8792 0.26856 27.5183 0 28.2534 0H31.4172C32.1522 0 32.7913 0.26856 33.3346 0.80568C33.8779 1.3428 34.1495 1.9747 34.1495 2.7014V5.26061C34.1495 5.54496 34.2774 5.68714 34.533 5.68714H42.2029C42.9379 5.68714 43.5771 5.9557 44.1203 6.49282C44.6636 7.02994 44.9353 7.66185 44.9353 8.38854V20.0946C44.9353 20.2841 45.0311 20.3789 45.2229 20.3789ZM37.0257 19.9524V13.4122C37.0257 13.1594 36.8819 13.033 36.5943 13.033H34.533C34.2774 13.033 34.1495 13.1594 34.1495 13.4122V19.9524C34.1495 20.2368 34.2774 20.3789 34.533 20.3789H36.5943C36.8819 20.3789 37.0257 20.2368 37.0257 19.9524Z" fill="white"/>
<path d="M43.9086 107.913C45.3627 107.913 46.6272 108.419 47.7019 109.431C48.7767 110.442 49.3141 111.633 49.3141 113.002V117.109C49.3141 118.478 48.7767 119.668 47.7019 120.68C46.6272 121.692 45.3627 122.197 43.9086 122.197H5.40559C3.95145 122.197 2.68699 121.692 1.61219 120.68C0.537398 119.668 0 118.478 0 117.109V113.002C0 109.669 1.42252 106.961 4.26757 104.877C14.6994 97.3779 21.4959 91.8425 24.6571 88.2714C27.8182 84.6407 29.3988 81.0695 29.3988 77.5579C29.3988 73.0939 26.7118 70.8619 21.3379 70.8619C17.5445 70.8619 12.613 71.8737 6.54361 73.8974C5.27914 74.314 4.10951 74.195 3.03472 73.5403C1.95992 72.8261 1.42252 71.8737 1.42252 70.6834V64.7909C1.42252 63.2434 1.8967 61.8745 2.84505 60.6841C3.7934 59.4342 5.02625 58.6307 6.54361 58.2735C12.7395 56.8451 18.6193 56.1308 24.1829 56.1308C32.0858 56.1308 38.1552 57.8867 42.3912 61.3983C46.6904 64.8504 48.84 69.6418 48.84 75.7723C48.84 80.6529 47.1962 85.2954 43.9086 89.6998C40.6842 94.1043 34.2986 100.086 24.7519 107.645C24.6887 107.704 24.6571 107.764 24.6571 107.824C24.6571 107.883 24.6887 107.913 24.7519 107.913H43.9086Z" fill="#7FD6A7"/>
<path d="M1.62712 165.882C2.09718 165.481 2.65118 165.297 3.28911 165.33C3.92705 165.364 4.44747 165.615 4.85038 166.083C5.25329 166.518 5.43795 167.054 5.40438 167.69C5.20292 170.703 4.91753 173.966 4.5482 177.481C4.48105 178.117 4.19566 178.619 3.69202 178.987C3.22196 179.356 2.66797 179.489 2.03003 179.389C1.3921 179.289 0.871674 178.971 0.468767 178.435C0.0994354 177.933 -0.0516547 177.364 0.0154964 176.728C0.250525 174.686 0.535918 171.59 0.871674 167.439C0.905249 166.803 1.15707 166.284 1.62712 165.882ZM46.1483 168.544C47.0213 170.786 47.8439 173.263 48.6161 175.975C48.8512 176.711 48.7672 177.431 48.3643 178.134C47.995 178.837 47.4242 179.305 46.652 179.54L45.2922 179.941C44.5535 180.176 43.8484 180.109 43.1769 179.741C42.5054 179.372 42.0521 178.803 41.8171 178.033C41.7835 177.899 41.7164 177.699 41.6156 177.431C41.5485 177.163 41.4981 176.962 41.4645 176.828C41.431 176.795 41.3806 176.795 41.3135 176.828C41.2463 177.598 41.1456 178.234 41.0113 178.736C40.9106 179.272 40.793 179.724 40.6587 180.092C40.5244 180.494 40.2726 180.812 39.9033 181.046C39.5675 181.28 39.2653 181.464 38.9967 181.598C38.7617 181.732 38.2917 181.816 37.5866 181.849C36.9151 181.916 36.3275 181.95 35.8238 181.95C35.3538 181.983 34.5816 182 33.5071 182C31.9291 182 30.7707 181.983 30.0321 181.95C29.2934 181.95 28.5379 181.883 27.7657 181.749C27.027 181.615 26.5234 181.481 26.2548 181.347C26.0198 181.213 25.7848 180.929 25.5497 180.494C25.3483 180.059 25.2308 179.623 25.1972 179.188C25.1972 178.787 25.1972 178.134 25.1972 177.23V172.008C25.1636 171.975 25.13 171.958 25.0965 171.958C24.5257 174.602 23.8877 176.912 23.1826 178.887C22.9476 179.623 22.4608 180.142 21.7221 180.443C20.9834 180.745 20.2448 180.761 19.5061 180.494L18.801 180.243C18.0624 179.975 17.5252 179.473 17.1894 178.736C16.8872 178.033 16.8704 177.314 17.139 176.577C17.4748 175.64 17.7098 174.92 17.8441 174.418C17.8777 174.351 17.8609 174.284 17.7938 174.217C17.7266 174.15 17.6595 174.134 17.5923 174.167C17.3237 174.301 17.0887 174.368 16.8872 174.368C16.2493 174.401 15.6953 174.217 15.2252 173.816C14.7888 173.381 14.5537 172.845 14.5201 172.209C14.4866 171.138 14.4026 169.498 14.2683 167.288C14.2348 166.686 14.4026 166.167 14.772 165.732C15.1749 165.263 15.6785 164.995 16.2829 164.928C16.8536 164.861 17.3573 165.029 17.7938 165.43C18.2638 165.799 18.5324 166.267 18.5996 166.836C18.6332 167.171 18.6667 167.673 18.7003 168.343C18.7675 168.979 18.8178 169.464 18.8514 169.799C18.8514 169.832 18.8682 169.849 18.9018 169.849C18.9689 169.849 19.0025 169.832 19.0025 169.799C19.0025 169.732 19.0193 169.648 19.0528 169.548C19.0864 169.414 19.1032 169.313 19.1032 169.246C19.2711 168.477 19.674 167.857 20.3119 167.389C20.9834 166.92 21.7053 166.753 22.4776 166.887L24.9957 167.288C25.13 167.288 25.1972 167.238 25.1972 167.138C25.1972 166.803 25.3147 166.518 25.5497 166.284C25.7848 166.05 26.0701 165.933 26.4059 165.933H31.0393C31.1065 165.933 31.1401 165.916 31.1401 165.882C31.1401 165.815 31.1233 165.765 31.0897 165.732C30.8547 165.531 30.6868 165.38 30.5861 165.28C30.4182 165.046 30.1999 164.928 29.9313 164.928H24.4417H20.5134C19.674 164.928 18.9689 164.61 18.3981 163.974C18.1967 163.774 17.9784 163.723 17.7434 163.824C17.6091 163.891 17.5252 163.924 17.4916 163.924L17.2398 163.974C16.7697 164.108 16.3332 164.058 15.9303 163.824C15.561 163.589 15.326 163.255 15.2252 162.82C15.1581 162.652 15.0574 162.568 14.9231 162.568L13.9158 162.669C13.6136 162.669 13.4625 162.82 13.4625 163.121V179.138C13.4625 179.908 13.1771 180.577 12.6063 181.146C12.0691 181.715 11.4144 182 10.6422 182H9.03054C8.2583 182 7.58679 181.715 7.016 181.146C6.47879 180.577 6.21019 179.908 6.21019 179.138V163.673C6.21019 163.405 6.0591 163.271 5.75692 163.271L3.38984 163.472C2.6176 163.539 1.9293 163.305 1.32494 162.769C0.754159 162.234 0.451979 161.581 0.418403 160.811L0.36804 159.255C0.334464 158.451 0.586281 157.765 1.12349 157.196C1.69428 156.627 2.36579 156.309 3.13803 156.242L3.38984 156.192C3.65845 156.192 3.87669 156.075 4.04457 155.84C4.5482 155.07 4.83359 154.635 4.90074 154.535C5.06862 154.267 5.05183 154.016 4.85038 153.782C3.77596 152.476 2.78548 151.305 1.87894 150.267C0.636645 148.794 0.334464 147.187 0.9724 145.447L2.08039 142.334C2.2147 141.898 2.51688 141.631 2.98694 141.53C3.45699 141.43 3.84311 141.564 4.14529 141.932C4.31317 142.099 4.43068 142.099 4.49784 141.932C4.90074 141.028 5.43795 139.639 6.10946 137.764C6.37807 136.995 6.86491 136.442 7.57 136.107C8.30866 135.773 9.04733 135.723 9.78599 135.957L10.3903 136.158C11.129 136.425 11.6494 136.911 11.9516 137.614C12.2874 138.317 12.3042 139.02 12.002 139.723C10.7597 142.601 9.6349 145.028 8.62763 147.003C8.52691 147.237 8.56048 147.438 8.72836 147.606C8.86266 147.773 8.99696 147.756 9.13127 147.555C9.93708 146.15 10.81 144.576 11.7502 142.836C12.1195 142.133 12.6735 141.647 13.4122 141.38C14.1844 141.078 14.9566 141.078 15.7289 141.38L16.031 141.53C16.7361 141.798 17.2062 142.3 17.4412 143.037C17.7098 143.739 17.6595 144.426 17.2901 145.095C16.4843 146.568 15.242 148.71 13.5632 151.522C13.5297 151.589 13.5297 151.656 13.5632 151.723C13.6304 151.756 13.6808 151.756 13.7143 151.723C14.453 151.489 15.1581 151.556 15.8296 151.924C16.5011 152.292 16.9208 152.844 17.0887 153.581C17.2901 154.317 17.4412 154.886 17.5419 155.288C17.5419 155.321 17.5587 155.338 17.5923 155.338C17.6259 155.338 17.6427 155.321 17.6427 155.288V141.179C17.6427 140.409 17.9281 139.739 18.4988 139.17C19.0696 138.601 19.7411 138.317 20.5134 138.317H26.557C26.8592 138.317 27.0271 138.2 27.0606 137.965C27.0606 137.932 27.0774 137.865 27.111 137.764C27.1446 137.664 27.1614 137.597 27.1614 137.564C27.3292 136.76 27.7321 136.107 28.3701 135.605C29.0416 135.103 29.7802 134.886 30.5861 134.953L34.6151 135.153C35.3202 135.22 35.8742 135.538 36.2771 136.107C36.7136 136.643 36.8647 137.262 36.7304 137.965C36.6632 138.2 36.7808 138.317 37.0829 138.317H44.99C45.7622 138.317 46.4337 138.601 47.0045 139.17C47.5753 139.739 47.8607 140.409 47.8607 141.179V162.066C47.8607 162.836 47.5753 163.506 47.0045 164.075C46.4337 164.644 45.7622 164.928 44.99 164.928H39.5507C39.2821 164.928 39.1478 165.062 39.1478 165.33C39.1478 165.966 38.9128 166.552 38.4427 167.087L38.1406 167.539C37.6369 168.142 36.999 168.477 36.2268 168.544C35.4545 168.577 34.7494 168.359 34.1115 167.891C34.0779 167.857 34.0276 167.824 33.9604 167.79C33.9268 167.757 33.8933 167.723 33.8597 167.69C33.7925 167.623 33.7086 167.623 33.6079 167.69C33.5407 167.723 33.5071 167.79 33.5071 167.891V173.715C33.5071 174.217 33.5407 174.519 33.6079 174.619C33.675 174.686 33.8933 174.719 34.2626 174.719C34.464 174.719 34.5983 174.719 34.6655 174.719C34.7662 174.686 34.8669 174.619 34.9677 174.519C35.0684 174.418 35.1355 174.251 35.1691 174.017C35.2363 173.782 35.2866 173.464 35.3202 173.063C35.3874 172.326 35.7231 171.724 36.3275 171.255C36.9318 170.786 37.6034 170.636 38.342 170.803L39.0471 170.954C39.1143 170.987 39.1814 170.97 39.2486 170.903C39.3157 170.803 39.3325 170.719 39.2989 170.652C39.0303 169.983 39.0471 169.33 39.3493 168.694C39.6515 168.025 40.1383 167.573 40.8098 167.338L42.3711 166.836C43.1433 166.569 43.8988 166.602 44.6374 166.937C45.3761 167.272 45.8797 167.807 46.1483 168.544ZM13.0596 155.639C13.3618 155.639 13.4793 155.506 13.4122 155.238C13.345 154.97 13.2443 154.618 13.11 154.183C13.0092 153.748 12.9421 153.43 12.9085 153.229C12.8078 152.962 12.6903 152.928 12.556 153.129C11.9516 154.133 11.4816 154.886 11.1458 155.388C11.0786 155.455 11.0619 155.539 11.0954 155.639C11.1626 155.706 11.2465 155.74 11.3473 155.74L13.0596 155.639ZM24.4417 144.292V146.802C24.4417 146.836 24.4585 146.869 24.4921 146.903C24.5257 146.903 24.5592 146.886 24.5928 146.853L25.0461 146.35C25.4826 145.848 25.9694 145.781 26.5066 146.15C26.5402 146.217 26.6074 146.2 26.7081 146.099C26.9095 145.698 27.1781 145.062 27.5139 144.191C27.581 143.957 27.4803 143.84 27.2117 143.84H24.895C24.5928 143.84 24.4417 143.991 24.4417 144.292ZM28.8233 154.485C29.0584 154.351 29.0752 154.217 28.8737 154.083C28.773 154.016 28.6219 153.899 28.4204 153.731C28.219 153.564 28.0679 153.447 27.9672 153.38C27.9 153.313 27.8329 153.33 27.7657 153.43C27.3964 153.899 26.9599 153.966 26.4563 153.631L24.7943 152.577C24.7271 152.51 24.6432 152.51 24.5425 152.577C24.4753 152.61 24.4417 152.677 24.4417 152.777V159.004C24.4417 159.271 24.5928 159.405 24.895 159.405H27.5139C27.581 159.405 27.6314 159.372 27.665 159.305C27.6986 159.238 27.6818 159.171 27.6146 159.104L26.7584 158.351C26.2884 157.916 26.1037 157.363 26.2044 156.694C26.3052 156.024 26.6577 155.556 27.2621 155.288C27.665 155.087 28.1854 154.819 28.8233 154.485ZM32.9531 144.493C32.886 144.727 32.9699 144.844 33.205 144.844H37.4355C38.0063 144.844 38.4931 145.062 38.896 145.497C39.3325 145.932 39.5507 146.434 39.5507 147.003C39.5507 148.643 39.2989 150.016 38.7953 151.12C38.4595 151.857 37.9727 152.694 37.3348 153.631C37.1669 153.865 37.2004 154.066 37.4355 154.234C37.5026 154.267 37.5698 154.334 37.6369 154.434C37.7041 154.501 37.7712 154.552 37.8384 154.585C38.4427 155.054 38.7617 155.673 38.7953 156.443C38.8624 157.213 38.6274 157.882 38.0902 158.451L37.5362 159.104C37.4691 159.171 37.4523 159.238 37.4858 159.305C37.5194 159.372 37.5698 159.405 37.6369 159.405H40.1047C40.4069 159.405 40.558 159.271 40.558 159.004V144.292C40.558 143.991 40.4069 143.84 40.1047 143.84H33.6079C33.3057 143.84 33.1042 143.974 33.0035 144.242C33.0035 144.275 33.0035 144.325 33.0035 144.392C33.0035 144.426 32.9867 144.459 32.9531 144.493ZM30.7875 149.112H30.7372L30.7875 149.162C30.989 149.33 31.3247 149.581 31.7948 149.915C32.2648 150.217 32.6006 150.451 32.802 150.618C33.0371 150.786 33.2385 150.769 33.4064 150.568C33.6414 150.267 33.8597 149.899 34.0611 149.464C34.0947 149.397 34.0779 149.33 34.0108 149.263C33.9772 149.162 33.91 149.112 33.8093 149.112H30.7875ZM30.1832 159.405H35.1691C35.2363 159.405 35.2866 159.372 35.3202 159.305C35.3538 159.238 35.337 159.171 35.2699 159.104C34.5983 158.568 34.0779 158.15 33.7086 157.849C33.44 157.648 33.1882 157.614 32.9531 157.748C32.0466 158.351 31.1065 158.853 30.1328 159.255C30.0992 159.288 30.0824 159.322 30.0824 159.355C30.0824 159.388 30.116 159.405 30.1832 159.405Z" fill="white"/>
</svg>
